<svg width="99" height="99" viewBox="0 0 99 99" fill="none" xmlns="http://www.w3.org/2000/svg">
<circle cx="49.5" cy="49.5" r="49.5" fill="#BEDAE7"/>
<path d="M47.9375 22.1875C44.5447 22.1875 41.75 24.9822 41.75 28.375L41.783 28.0368L39.7514 40.2261L35.8533 50.8934C35.7791 50.9903 35.6904 51.0625 35.5625 51.0625H33.5V49H23.1875V75.8125H33.5V69.625H41.5974C44.9881 69.625 48.0427 67.9812 50 65.4278C51.9594 67.9812 55.0119 69.625 58.4026 69.625H66.5V75.8125H76.8125V49H66.5V51.0625H64.4375C64.3076 51.0625 64.2209 50.9903 64.1488 50.8934L60.2486 40.2261L58.217 28.0368L58.25 28.375C58.25 24.9822 55.4553 22.1875 52.0625 22.1875C51.3612 22.1875 50.6435 22.3236 50 22.6557C49.359 22.3393 48.6523 22.1789 47.9375 22.1875ZM47.8653 26.3455C47.9066 26.6425 47.9375 27.319 47.9375 28.375V60.2159C47.6677 61.7001 46.885 63.0424 45.7262 64.0083C44.5673 64.9741 43.1059 65.5021 41.5974 65.5H33.5V55.1875H35.5625C36.3603 55.1863 37.1436 54.9739 37.8326 54.5718C38.5217 54.1696 39.0919 53.5922 39.4854 52.8981L39.5679 52.7455L43.7486 41.2739L45.875 28.5441V28.375C45.875 27.2406 46.7454 26.3847 47.8653 26.3455ZM52.1347 26.3455C53.2546 26.3868 54.125 27.2386 54.125 28.375V28.5441L56.2514 41.2739L60.4342 52.7455L60.5146 52.9002C60.9083 53.5939 61.4787 54.1709 62.1677 54.5727C62.8568 54.9744 63.6399 55.1866 64.4375 55.1875H66.5V65.5H58.4026C56.8938 65.502 55.4322 64.9737 54.2733 64.0075C53.1144 63.0412 52.3319 61.6984 52.0625 60.2138V28.375C52.0625 27.319 52.0955 26.6425 52.1347 26.3455ZM27.3125 53.125H29.375V71.6875H27.3125V53.125ZM70.625 53.125H72.6875V71.6875H70.625V53.125Z" fill="white"/>
</svg>
