<svg width="99" height="99" viewBox="0 0 99 99" fill="none" xmlns="http://www.w3.org/2000/svg">
<circle cx="49.5" cy="49.5" r="49.5" fill="#BEDAE7"/>
<path fill-rule="evenodd" clip-rule="evenodd" d="M42.3674 28.2624L44.278 34.1993C44.4296 34.6688 44.5841 35.3374 44.489 36.101C44.3501 37.2313 43.9045 38.302 43.2005 39.1972C42.4966 40.0923 41.5611 40.7778 40.4954 41.1792L32.4933 44.1804C31.5509 44.5338 30.5369 44.6535 29.5382 44.5294C28.5394 44.4052 27.5855 44.0409 26.7583 43.4675C25.9312 42.8942 25.2552 42.1289 24.7885 41.2372C24.3217 40.3455 24.078 39.3539 24.0782 38.3474V35.0521C24.0782 33.2485 24.9102 31.4686 26.4851 30.3751C33.4114 25.5664 41.6434 22.9928 50.0753 23C58.841 23 66.9767 25.7248 73.6714 30.3751C75.2462 31.4686 76.0782 33.2485 76.0782 35.0521V38.3474C76.0782 39.354 75.8341 40.3456 75.367 41.2372C74.8999 42.1289 74.2236 42.894 73.3961 43.4671C72.5686 44.0402 71.6145 44.4042 70.6155 44.5279C69.6165 44.6516 68.6025 44.5313 67.6602 44.1774L59.6611 41.1762C58.5958 40.775 57.6606 40.09 56.9567 39.1955C56.2527 38.3009 55.8069 37.2308 55.6675 36.101C55.5724 35.3374 55.7269 34.6688 55.8755 34.1993L57.7891 28.2624C55.253 27.7255 52.6676 27.4557 50.0753 27.4572C47.4307 27.4572 44.8515 27.7335 42.3644 28.2624M38.0648 29.451C34.8539 30.5554 31.8111 32.0983 29.0227 34.0359C28.8651 34.1532 28.7382 34.3069 28.6528 34.4838C28.5675 34.6608 28.5261 34.8558 28.5324 35.0521V38.3474C28.5324 39.5836 29.7685 40.4393 30.9274 40.0055L38.9265 37.0044C39.2178 36.8939 39.475 36.709 39.6726 36.4681C39.8702 36.2273 40.0012 35.9388 40.0526 35.6316L40.0348 35.5662L38.0648 29.451ZM60.1187 35.5692L60.1009 35.6345C60.1523 35.9418 60.2833 36.2302 60.4809 36.4711C60.6785 36.712 60.9357 36.8968 61.227 37.0073L69.2261 40.0085C69.494 40.1088 69.7822 40.1427 70.066 40.1073C70.3499 40.072 70.621 39.9684 70.856 39.8054C71.0911 39.6425 71.2833 39.425 71.416 39.1716C71.5487 38.9182 71.618 38.6365 71.6181 38.3504V35.0521C71.6247 34.856 71.5839 34.6612 71.499 34.4843C71.4142 34.3073 71.2879 34.1535 71.1308 34.0359C68.3423 32.0993 65.2995 30.5574 62.0887 29.454L60.1187 35.5692ZM50.0782 51.2642C47.911 51.2642 45.8326 52.1252 44.3002 53.6576C42.7677 55.19 41.9068 57.2685 41.9068 59.4357C41.9068 61.6029 42.7677 63.6813 44.3002 65.2137C45.8326 66.7462 47.911 67.6071 50.0782 67.6071C52.2454 67.6071 54.3239 66.7462 55.8563 65.2137C57.3888 63.6813 58.2497 61.6029 58.2497 59.4357C58.2497 57.2685 57.3888 55.19 55.8563 53.6576C54.3239 52.1252 52.2454 51.2642 50.0782 51.2642ZM46.364 59.4357C46.364 58.4506 46.7553 57.5058 47.4518 56.8093C48.1484 56.1127 49.0932 55.7214 50.0782 55.7214C51.0633 55.7214 52.0081 56.1127 52.7046 56.8093C53.4012 57.5058 53.7925 58.4506 53.7925 59.4357C53.7925 60.4208 53.4012 61.3655 52.7046 62.0621C52.0081 62.7586 51.0633 63.1499 50.0782 63.1499C49.0932 63.1499 48.1484 62.7586 47.4518 62.0621C46.7553 61.3655 46.364 60.4208 46.364 59.4357Z" fill="white"/>
<path fill-rule="evenodd" clip-rule="evenodd" d="M44.1146 44.6321C47.9343 43.0514 52.2252 43.0514 56.0448 44.6321L70.3523 50.5541C71.3363 50.9612 72.2089 51.5975 72.8973 52.41C73.5858 53.2225 74.0702 54.1877 74.3102 55.2252L76.9875 66.8078C77.2141 67.7879 77.2167 68.8066 76.995 69.7878C76.7733 70.7691 76.333 71.6877 75.7069 72.4751C75.0809 73.2626 74.2852 73.8986 73.3791 74.3357C72.4731 74.7729 71.4801 75 70.4741 75.0001H29.6853C28.6793 75 27.6863 74.7729 26.7803 74.3357C25.8742 73.8986 25.0785 73.2626 24.4525 72.4751C23.8264 71.6877 23.3861 70.7691 23.1644 69.7878C22.9427 68.8066 22.9453 67.7879 23.1719 66.8078L25.8462 55.2282C26.0858 54.1901 26.57 53.2243 27.2585 52.4113C27.947 51.5982 28.8198 50.9615 29.8042 50.5541L44.1146 44.6321ZM54.3392 48.7534C51.6116 47.6251 48.5478 47.6251 45.8202 48.7534L31.5098 54.6725C31.1818 54.8082 30.8909 55.0203 30.6614 55.2911C30.4319 55.562 30.2705 55.8837 30.1905 56.2295L27.5132 67.8122C27.4377 68.1387 27.4368 68.4781 27.5106 68.805C27.5844 69.132 27.731 69.438 27.9394 69.7005C28.1479 69.9629 28.4129 70.175 28.7146 70.3208C29.0164 70.4667 29.3472 70.5426 29.6823 70.5429H70.4741C70.8096 70.5427 71.1407 70.4667 71.4427 70.3207C71.7447 70.1747 72.0099 69.9624 72.2184 69.6996C72.427 69.4368 72.5735 69.1303 72.647 68.803C72.7206 68.4756 72.7193 68.1359 72.6432 67.8092L69.969 56.2295C69.8889 55.8837 69.7275 55.562 69.498 55.2911C69.2685 55.0203 68.9777 54.8082 68.6496 54.6725L54.3392 48.7534Z" fill="white"/>
</svg>
