<svg width="99" height="99" viewBox="0 0 99 99" fill="none" xmlns="http://www.w3.org/2000/svg">
<circle cx="49.5" cy="49.5" r="49.5" fill="#BEDAE7"/>
<path d="M49.5 49.5C46.2459 49.5 43.4601 48.3414 41.1427 46.024C38.8254 43.7066 37.6667 40.9209 37.6667 37.6667C37.6667 34.4125 38.8254 31.6268 41.1427 29.3094C43.4601 26.9921 46.2459 25.8334 49.5 25.8334C52.7542 25.8334 55.54 26.9921 57.8573 29.3094C60.1747 31.6268 61.3334 34.4125 61.3334 37.6667C61.3334 40.9209 60.1747 43.7066 57.8573 46.024C55.54 48.3414 52.7542 49.5 49.5 49.5ZM25.8334 67.25V64.8834C25.8334 63.207 26.2653 61.6667 27.1291 60.2625C27.993 58.8582 29.1388 57.7853 30.5667 57.0438C33.6237 55.5153 36.7299 54.3695 39.8855 53.6062C43.041 52.843 46.2459 52.4603 49.5 52.4584C52.7542 52.4564 55.9591 52.839 59.1146 53.6062C62.2702 54.3734 65.3764 55.5193 68.4334 57.0438C69.8632 57.7834 71.0101 58.8563 71.8739 60.2625C72.7377 61.6686 73.1687 63.209 73.1667 64.8834V67.25C73.1667 68.8771 72.5879 70.2705 71.4302 71.4302C70.2725 72.5898 68.8791 73.1687 67.25 73.1667H31.75C30.123 73.1667 28.7306 72.5879 27.5729 71.4302C26.4152 70.2725 25.8353 68.8791 25.8334 67.25ZM31.75 67.25H67.25V64.8834C67.25 64.341 67.1149 63.848 66.8447 63.4042C66.5746 62.9605 66.2166 62.6153 65.7709 62.3688C63.1084 61.0375 60.4212 60.0396 57.7094 59.375C54.9976 58.7103 52.2612 58.377 49.5 58.375C46.7389 58.3731 44.0025 58.7064 41.2907 59.375C38.5789 60.0435 35.8917 61.0415 33.2292 62.3688C32.7855 62.6153 32.4275 62.9605 32.1553 63.4042C31.8832 63.848 31.7481 64.341 31.75 64.8834V67.25ZM49.5 43.5834C51.1271 43.5834 52.5205 43.0045 53.6802 41.8468C54.8398 40.6891 55.4187 39.2958 55.4167 37.6667C55.4147 36.0377 54.8359 34.6453 53.6802 33.4895C52.5244 32.3338 51.1311 31.754 49.5 31.75C47.869 31.7461 46.4766 32.3259 45.3229 33.4895C44.1691 34.6532 43.5893 36.0455 43.5834 37.6667C43.5775 39.2879 44.1573 40.6812 45.3229 41.8468C46.4885 43.0124 47.8808 43.5913 49.5 43.5834Z" fill="white"/>
</svg>
