<svg width="99" height="99" viewBox="0 0 99 99" fill="none" xmlns="http://www.w3.org/2000/svg">
<circle cx="49.5" cy="49.5" r="49.5" fill="#BEDAE7"/>
<path d="M50 31.505L49.2957 31.7188L21.1707 41.1418L14.7762 43.25L18.5 44.4425V64.13C17.1567 64.9108 16.25 66.335 16.25 68C16.25 69.1935 16.7241 70.3381 17.568 71.182C18.4119 72.0259 19.5565 72.5 20.75 72.5C21.9435 72.5 23.0881 72.0259 23.932 71.182C24.7759 70.3381 25.25 69.1935 25.25 68C25.25 66.335 24.3432 64.9108 23 64.13V45.995L27.5 47.4688V59C27.5 60.845 28.625 62.375 29.9615 63.4325C31.298 64.4833 32.9585 65.2258 34.952 65.8918C38.9435 67.2193 44.204 68 50 68C55.796 68 61.0565 67.2215 65.048 65.8895C67.0415 65.2258 68.702 64.4833 70.0385 63.4303C71.375 62.375 72.5 60.845 72.5 59V47.4688L78.8292 45.3583L85.2237 43.25L78.827 41.1395L50.702 31.7188L50 31.505ZM50 36.2188L71.0937 43.25L50 50.2813L28.9062 43.25L50 36.2188ZM32 49.0168L49.298 54.7813L50 54.9928L50.7042 54.779L68 49.0145V59C68 59.0225 68.009 59.2835 67.2957 59.8438C66.5847 60.4063 65.309 61.115 63.6395 61.673C60.305 62.7823 55.3887 63.5 50 63.5C44.6112 63.5 39.695 62.7845 36.3582 61.6708C34.6932 61.115 33.4152 60.404 32.7042 59.8438C31.9887 59.2813 32 59.0225 32 59V49.0168Z" fill="white"/>
</svg>
