<svg width="99" height="99" viewBox="0 0 99 99" fill="none" xmlns="http://www.w3.org/2000/svg">
<circle cx="49.5" cy="49.5" r="49.5" fill="#BEDAE7"/>
<path d="M45.875 36.625C43.8216 36.6227 41.8412 37.3862 40.3208 38.7663C38.8004 40.1463 37.8493 42.0438 37.6533 44.0877C37.4574 46.1317 38.0307 48.1753 39.2613 49.8191C40.4918 51.4628 42.2911 52.5887 44.3075 52.9765C45.083 51.4777 46.0111 50.0917 47.0918 48.8185C46.2117 49.091 45.2657 49.0609 44.4046 48.7332C43.5435 48.4054 42.8169 47.7988 42.3407 47.0101C41.8645 46.2213 41.666 45.2958 41.777 44.3812C41.888 43.4665 42.302 42.6154 42.953 41.9634C43.604 41.3114 44.4545 40.8961 45.369 40.7838C46.2835 40.6714 47.2092 40.8685 47.9987 41.3435C48.7882 41.8185 49.3959 42.5442 49.7249 43.4047C50.054 44.2653 50.0855 45.2113 49.8143 46.0919C51.0945 45.0116 52.4904 44.0764 53.9765 43.3034C53.6115 41.4227 52.6034 39.7277 51.1252 38.5091C49.6469 37.2905 47.7907 36.6244 45.875 36.625ZM34.3373 55.6742C35.8948 55.3906 37.5025 55.6391 38.9017 56.3798C40.3008 57.1205 41.4101 58.3104 42.0511 59.758C41.5233 62.9683 41.6921 66.2546 42.5461 69.394C41.9193 69.3107 41.296 69.2033 40.6775 69.0723C40.394 69.0149 40.1344 68.8737 39.9321 68.667C39.7299 68.4604 39.5943 68.1977 39.5431 67.9131L38.4747 62.0721C38.3979 61.6559 38.2315 61.2614 37.9871 60.9158C37.7427 60.5703 37.4261 60.282 37.0593 60.0709C36.6924 59.8598 36.2841 59.731 35.8625 59.6934C35.441 59.6557 35.0163 59.7101 34.6178 59.8529L29.0078 61.8494C28.7355 61.9441 28.4415 61.9575 28.1617 61.8879C27.8818 61.8183 27.6283 61.6687 27.4321 61.4575C25.0836 58.8706 23.3094 55.8157 22.2263 52.4939C22.1359 52.2192 22.1301 51.9238 22.2095 51.6458C22.2889 51.3678 22.45 51.12 22.6718 50.9346L27.2176 47.0942C27.5406 46.8216 27.8002 46.4818 27.9782 46.0985C28.1563 45.7152 28.2486 45.2977 28.2486 44.875C28.2486 44.4523 28.1563 44.0348 27.9782 43.6515C27.8002 43.2682 27.5406 42.9283 27.2176 42.6557L22.6718 38.8154C22.45 38.63 22.2889 38.3822 22.2095 38.1042C22.1301 37.8262 22.1359 37.5308 22.2263 37.2561C23.3107 33.9339 25.0862 30.8791 27.4362 28.2925C27.6325 28.0813 27.886 27.9317 28.1658 27.8621C28.4456 27.7925 28.7396 27.8059 29.012 27.9006L34.622 29.8971C35.0205 30.0384 35.4448 30.0917 35.8659 30.0534C36.2869 30.0151 36.6947 29.8861 37.0612 29.6752C37.4276 29.4643 37.7441 29.1766 37.9888 28.8318C38.2335 28.4871 38.4007 28.0934 38.4788 27.6779L39.5513 21.8369C39.6016 21.5521 39.7361 21.2889 39.9377 21.0815C40.1392 20.8741 40.3984 20.732 40.6816 20.6736C44.1088 19.9501 47.6493 19.9501 51.0766 20.6736C51.6541 20.7974 52.0996 21.2552 52.2068 21.8369L53.2793 27.6779C53.3562 28.0941 53.5225 28.4886 53.7669 28.8342C54.0113 29.1797 54.3279 29.468 54.6948 29.6791C55.0616 29.8902 55.4699 30.019 55.8915 30.0566C56.3131 30.0943 56.7378 30.0399 57.1362 29.8971L62.7462 27.9006C63.0185 27.8059 63.3126 27.7925 63.5924 27.8621C63.8722 27.9317 64.1257 28.0813 64.322 28.2925C66.6704 30.8794 68.4446 33.9343 69.5277 37.2561C69.6181 37.5308 69.624 37.8262 69.5446 38.1042C69.4651 38.3822 69.3041 38.63 69.0822 38.8154L66.665 40.8572C64.6024 40.6593 62.5226 40.7398 60.4816 41.0965C60.8556 40.508 61.319 39.9772 61.8717 39.5042L64.9861 36.8766C64.3109 35.283 63.4378 33.7807 62.3873 32.4051L58.5222 33.7829C57.5605 34.1267 56.5356 34.2574 55.5184 34.1658C54.5012 34.0742 53.5161 33.7626 52.6313 33.2525C51.7465 32.7425 50.9831 32.0461 50.3942 31.2117C49.8052 30.3774 49.4047 29.4249 49.2203 28.4204L48.4861 24.4191C46.7537 24.1982 45.0003 24.1982 43.268 24.4191L42.5378 28.4204C42.4663 28.7971 42.3673 29.1656 42.2408 29.5259C41.6089 31.2827 40.3061 32.7174 38.6182 33.5154C36.9302 34.3133 34.9947 34.4095 33.236 33.7829L29.375 32.4051C28.3245 33.7807 27.4514 35.283 26.7762 36.8766L29.8865 39.5042C30.178 39.7517 30.4475 40.0212 30.695 40.3127C33.2277 43.2827 32.8565 47.7295 29.8865 50.2416L26.7721 52.8734C27.4486 54.4656 28.3231 55.9671 29.3708 57.3449L33.236 55.9671C33.5962 55.8406 33.9606 55.743 34.3373 55.6742ZM64.4375 82C68.5098 81.9996 72.4691 80.6601 75.7051 78.1877C78.9411 75.7154 81.2743 72.2475 82.3451 68.3184C83.4159 64.3893 83.1649 60.2171 81.6308 56.4448C80.0967 52.6724 77.3646 49.5092 73.8555 47.4427C70.3464 45.3761 66.2551 44.5208 62.2121 45.0087C58.169 45.4965 54.3986 47.3004 51.4818 50.1423C48.565 52.9842 46.6638 56.7065 46.071 60.7355C45.4782 64.7645 46.2268 68.8766 48.2015 72.4382L45.9533 79.8179C45.8663 80.11 45.8598 80.4203 45.9346 80.7158C46.0094 81.0113 46.1627 81.2811 46.3783 81.4967C46.5938 81.7122 46.8636 81.8655 47.1592 81.9403C47.4547 82.0151 47.7649 82.0087 48.0571 81.9216L55.4408 79.6776C58.1943 81.2019 61.2902 82.0011 64.4375 82ZM54.125 59.3125C54.125 58.7655 54.3423 58.2409 54.729 57.8541C55.1158 57.4673 55.6404 57.25 56.1875 57.25H72.6875C73.2345 57.25 73.7591 57.4673 74.1459 57.8541C74.5327 58.2409 74.75 58.7655 74.75 59.3125C74.75 59.8595 74.5327 60.3841 74.1459 60.7709C73.7591 61.1577 73.2345 61.375 72.6875 61.375H56.1875C55.6404 61.375 55.1158 61.1577 54.729 60.7709C54.3423 60.3841 54.125 59.8595 54.125 59.3125ZM56.1875 69.625C55.6404 69.625 55.1158 69.4077 54.729 69.0209C54.3423 68.6341 54.125 68.1095 54.125 67.5625C54.125 67.0155 54.3423 66.4909 54.729 66.1041C55.1158 65.7173 55.6404 65.5 56.1875 65.5H64.4375C64.9845 65.5 65.5091 65.7173 65.8959 66.1041C66.2827 66.4909 66.5 67.0155 66.5 67.5625C66.5 68.1095 66.2827 68.6341 65.8959 69.0209C65.5091 69.4077 64.9845 69.625 64.4375 69.625H56.1875Z" fill="white"/>
</svg>
